<mxfile host="app.diagrams.net" modified="2024-06-04T18:11:47.944Z" agent="Mozilla/5.0 (Windows NT 10.0; Win64; x64) AppleWebKit/537.36 (KHTML, like Gecko) Chrome/124.0.0.0 Safari/537.36" version="24.4.13" etag="-UEdUdRSk66mhci70Tfc" type="github">
  <diagram name="‫עמוד-1‬" id="0V2mNRWg7w3LbejHQxck">
    <mxGraphModel>
      <root>
        <mxCell id="0" />
        <mxCell id="1" parent="0" />
      </root>
    </mxGraphModel>
  </diagram>
</mxfile>
